# xmcd
#
# Track frame offsets:
#	150
#	9840
#	28792
#	47474
#	69828
#	88554
#	107680
#	130423
#	150368
#	168466
#	184305
#	203304
#	222873
#	244693
#
# Disc length: 3537 seconds
#
# Revision: 0
# Processed by: cddbd v1.5.2PL0 Copyright (c) Steve Scherf et al.
# Submitted via: EZCDAudioConverter 1.0.7.1
#
DISCID=a70dcf0e
DTITLE=LaTocha Scott - Solo Flight 404
DYEAR=2004
DGENRE=R&B
TTITLE0=Intro - I Am Here
TTITLE1=Still Ghetto
TTITLE2=Yo Chic
TTITLE3=Fantasy
TTITLE4=Interlude - Rock On Da Block
TTITLE5=Thank You
TTITLE6=2 Nite Featuring Ms. B'Havin
TTITLE7=Forever
TTITLE8=Sista
TTITLE9=Can't Stop
TTITLE10=P.A.R.T.Y Featuring J.O.C 
TTITLE11=You Make Me Feel 
TTITLE12=Believe
TTITLE13=Dreams (Bonus Track)
EXTD=
EXTT0=
EXTT1=
EXTT2=
EXTT3=
EXTT4=
EXTT5=
EXTT6=
EXTT7=
EXTT8=
EXTT9=
EXTT10=
EXTT11=
EXTT12=
EXTT13=
PLAYORDER=
